<svg width="1280" height="360" viewBox="0 0 1280 360" fill="none" xmlns="http://www.w3.org/2000/svg" role="img" aria-labelledby="title desc">
  <title id="title">STIGPilot banner</title>
  <desc id="desc">A professional security operations banner for STIGPilot with control nodes, report cards, and workflow labels.</desc>
  <defs>
    <linearGradient id="bg" x1="0" y1="0" x2="1280" y2="360" gradientUnits="userSpaceOnUse">
      <stop stop-color="#0B1220"/>
      <stop offset="0.55" stop-color="#111827"/>
      <stop offset="1" stop-color="#0F2A36"/>
    </linearGradient>
    <linearGradient id="accent" x1="108" y1="78" x2="298" y2="268" gradientUnits="userSpaceOnUse">
      <stop stop-color="#38BDF8"/>
      <stop offset="1" stop-color="#22C55E"/>
    </linearGradient>
    <filter id="softShadow" x="-20%" y="-20%" width="140%" height="140%">
      <feDropShadow dx="0" dy="18" stdDeviation="18" flood-color="#020617" flood-opacity="0.35"/>
    </filter>
    <pattern id="grid" width="40" height="40" patternUnits="userSpaceOnUse">
      <path d="M 40 0 L 0 0 0 40" stroke="#94A3B8" stroke-opacity="0.08" stroke-width="1"/>
    </pattern>
  </defs>

  <rect width="1280" height="360" rx="28" fill="url(#bg)"/>
  <rect width="1280" height="360" rx="28" fill="url(#grid)"/>

  <g opacity="0.4">
    <circle cx="1030" cy="70" r="150" fill="#38BDF8" fill-opacity="0.07"/>
    <circle cx="1160" cy="300" r="190" fill="#22C55E" fill-opacity="0.06"/>
  </g>

  <g transform="translate(78 56)" filter="url(#softShadow)">
    <rect x="0" y="0" width="252" height="252" rx="30" fill="#0F172A" stroke="#334155"/>
    <path d="M126 34C175.706 34 216 74.294 216 124C216 173.706 175.706 214 126 214C76.2944 214 36 173.706 36 124C36 74.294 76.2944 34 126 34Z" stroke="url(#accent)" stroke-width="10"/>
    <path d="M126 66L145 124L126 182L107 124L126 66Z" fill="url(#accent)"/>
    <circle cx="126" cy="124" r="10" fill="#E2E8F0"/>
    <path d="M67 124H91M161 124H185M126 65V89M126 159V183" stroke="#94A3B8" stroke-width="5" stroke-linecap="round"/>
  </g>

  <g transform="translate(382 66)">
    <text x="0" y="74" fill="#F8FAFC" font-family="Arial, Helvetica, sans-serif" font-size="68" font-weight="700" letter-spacing="0">STIGPilot</text>
    <text x="2" y="120" fill="#CBD5E1" font-family="Arial, Helvetica, sans-serif" font-size="24" font-weight="400">Navigate DISA STIG changes, remediation planning, and ticket-ready reporting.</text>

    <g transform="translate(0 158)" font-family="Arial, Helvetica, sans-serif" font-size="16" font-weight="700">
      <rect x="0" y="0" width="78" height="34" rx="17" fill="#0EA5E9" fill-opacity="0.16" stroke="#38BDF8" stroke-opacity="0.55"/>
      <text x="20" y="23" fill="#BAE6FD">XCCDF</text>
      <rect x="92" y="0" width="116" height="34" rx="17" fill="#22C55E" fill-opacity="0.14" stroke="#22C55E" stroke-opacity="0.5"/>
      <text x="112" y="23" fill="#BBF7D0">Impact Diff</text>
      <rect x="222" y="0" width="91" height="34" rx="17" fill="#64748B" fill-opacity="0.18" stroke="#94A3B8" stroke-opacity="0.45"/>
      <text x="242" y="23" fill="#E2E8F0">Evidence</text>
      <rect x="327" y="0" width="84" height="34" rx="17" fill="#64748B" fill-opacity="0.18" stroke="#94A3B8" stroke-opacity="0.45"/>
      <text x="348" y="23" fill="#E2E8F0">Backlog</text>
      <rect x="425" y="0" width="58" height="34" rx="17" fill="#0EA5E9" fill-opacity="0.16" stroke="#38BDF8" stroke-opacity="0.55"/>
      <text x="443" y="23" fill="#BAE6FD">Jira</text>
      <rect x="497" y="0" width="106" height="34" rx="17" fill="#0EA5E9" fill-opacity="0.16" stroke="#38BDF8" stroke-opacity="0.55"/>
      <text x="516" y="23" fill="#BAE6FD">ServiceNow</text>
      <rect x="617" y="0" width="94" height="34" rx="17" fill="#22C55E" fill-opacity="0.14" stroke="#22C55E" stroke-opacity="0.5"/>
      <text x="637" y="23" fill="#BBF7D0">Markdown</text>
    </g>
  </g>

  <g transform="translate(900 104)" opacity="0.95">
    <path d="M24 32H142" stroke="#38BDF8" stroke-width="2" stroke-opacity="0.7"/>
    <path d="M142 32L184 88L232 88" stroke="#38BDF8" stroke-width="2" stroke-opacity="0.7"/>
    <path d="M142 32L184 154L232 154" stroke="#22C55E" stroke-width="2" stroke-opacity="0.7"/>
    <circle cx="24" cy="32" r="9" fill="#38BDF8"/>
    <circle cx="142" cy="32" r="9" fill="#E2E8F0"/>
    <circle cx="232" cy="88" r="9" fill="#22C55E"/>
    <circle cx="232" cy="154" r="9" fill="#22C55E"/>

    <g filter="url(#softShadow)">
      <rect x="18" y="66" width="128" height="122" rx="14" fill="#111827" stroke="#334155"/>
      <rect x="38" y="88" width="72" height="8" rx="4" fill="#38BDF8" fill-opacity="0.65"/>
      <rect x="38" y="112" width="88" height="8" rx="4" fill="#94A3B8" fill-opacity="0.45"/>
      <rect x="38" y="136" width="64" height="8" rx="4" fill="#94A3B8" fill-opacity="0.45"/>
      <path d="M38 164L50 176L74 148" stroke="#22C55E" stroke-width="7" stroke-linecap="round" stroke-linejoin="round"/>
    </g>
  </g>
</svg>
